<svg width="22" height="22" viewBox="0 0 22 22" fill="none" xmlns="http://www.w3.org/2000/svg">
<path fill-rule="evenodd" clip-rule="evenodd" d="M0 2.06393C0 2.65557 0.447716 3.13518 1 3.13518H3.17059L6.2322 10.1829C6.2306 10.1866 6.22901 10.1903 6.22744 10.194L5.17669 12.6931C4.72307 13.772 5.17177 15.0405 6.17889 15.5265C6.43709 15.6511 6.71705 15.7155 7.00024 15.7155H17.5021C18.0544 15.7155 18.5021 15.2359 18.5021 14.6442C18.5021 14.0526 18.0544 13.573 17.5021 13.573H7.00024L7.6697 11.9807H16.7133L20.9391 4.07433C21.2135 3.56089 21.0474 2.90636 20.5681 2.61239C20.0888 2.31843 19.4778 2.49634 19.2034 3.00978L15.5538 9.83824H8.28846L4.44581 0.992676H1C0.447716 0.992676 0 1.47229 0 2.06393ZM10 19.204C10 20.3873 9.10457 21.3465 8 21.3465C6.89543 21.3465 6 20.3873 6 19.204C6 18.0207 6.89543 17.0615 8 17.0615C9.10457 17.0615 10 18.0207 10 19.204ZM16 21.3465C17.1046 21.3465 18 20.3873 18 19.204C18 18.0207 17.1046 17.0615 16 17.0615C14.8954 17.0615 14 18.0207 14 19.204C14 20.3873 14.8954 21.3465 16 21.3465Z" fill="#9B8869"/>
</svg>
