<svg width="18" height="19" viewBox="0 0 18 19" fill="none" xmlns="http://www.w3.org/2000/svg">
<path fill-rule="evenodd" clip-rule="evenodd" d="M11.43 11.5585L11.71 11.8478H12.5L16.8543 16.5217C17.2123 16.906 17.212 17.5018 16.8536 17.8857L16.7303 18.0179C16.3352 18.4411 15.6644 18.4414 15.2689 18.0186L11 13.4546V12.6083L10.73 12.3084C9.58999 13.3582 8.11 13.9903 6.5 13.9903C2.91 13.9903 0 10.8729 0 7.02711C0 3.18131 2.91 0.0639648 6.5 0.0639648C10.09 0.0639648 13 3.18131 13 7.02711C13 8.75183 12.41 10.3373 11.43 11.5585ZM6.5 2.20647C4.01 2.20647 2 4.35969 2 7.02711C2 9.69454 4.01 11.8478 6.5 11.8478C8.99 11.8478 11 9.69454 11 7.02711C11 4.35969 8.99 2.20647 6.5 2.20647Z" fill="#9B8869"/>
</svg>
