<svg width="18" height="23" viewBox="0 0 18 23" fill="none" xmlns="http://www.w3.org/2000/svg">
<path fill-rule="evenodd" clip-rule="evenodd" d="M9 11.2758C11.7623 11.2758 14 8.80175 14 5.74766C14 2.69358 11.7623 0.219482 9 0.219482C6.23772 0.219482 4 2.69358 4 5.74766C4 8.80175 6.23772 11.2758 9 11.2758ZM9 2.43076C10.6577 2.43076 12 3.91483 12 5.74766C12 7.58049 10.6577 9.06457 9 9.06457C7.34228 9.06457 6 7.58049 6 5.74766C6 3.91483 7.34228 2.43076 9 2.43076ZM18 21.2266C18 21.8372 17.5523 22.3322 17 22.3322C16.4477 22.3322 16 21.8372 16 21.2266V19.0153C16 17.401 12.156 15.6984 9 15.6984C5.844 15.6984 2 17.401 2 19.0153V21.2266C2 21.8372 1.55228 22.3322 1 22.3322C0.447715 22.3322 0 21.8372 0 21.2266V19.0153C0 15.6268 4.83098 13.4871 9 13.4871C13.169 13.4871 18 15.6268 18 19.0153V21.2266Z" fill="#9B8869"/>
</svg>
