<svg width="184" height="29" viewBox="0 0 184 29" fill="none" xmlns="http://www.w3.org/2000/svg">
<path fill-rule="evenodd" clip-rule="evenodd" d="M10.6246 9.78656C10.6246 10.1897 12.4638 10.9778 13.5888 10.9778C15.7494 10.9778 18.0886 8.08216 18.0886 5.00324C18.0886 2.07094 15.9815 0 13.0531 0C7.17829 0 0 8.39371 0 15.138C0 19.6647 3.24987 23.4767 7.10687 23.4767C9.84333 23.4767 12.8218 21.5559 15.4187 18.3653C15.2438 19.0268 15.1448 19.5143 15.1448 19.7564C15.1448 20.8926 17.4304 21.9739 18.0911 21.9739C18.2875 21.9739 18.4125 21.8823 18.4125 21.5891C18.4125 20.3062 20.9124 15.9261 23.2873 12.8655C22.3766 14.9181 21.4124 18.1803 21.4124 19.9763C21.4124 20.911 23.198 21.9739 25.0551 21.9739C25.3457 21.9739 26.791 20.0239 28.2596 17.8565C28.3023 20.1389 29.8382 21.9739 31.6692 21.9739C34.1334 21.9739 36.7762 18.6201 37.4547 15.2113C37.9979 15.2113 38.5563 15.1047 39.0865 14.9213C37.4693 19.4798 35.656 25.4729 35.656 26.2441C35.656 27.0871 37.8702 28.5899 38.9237 28.5899C39.2273 28.5899 39.4415 28.4433 39.4415 28.1684C39.4415 28.0035 39.388 27.9302 39.263 27.9302C39.138 27.9302 39.0666 27.8019 39.0666 27.5453C39.0666 26.5923 40.0665 23.6234 41.4772 20.6544C41.87 21.2042 43.62 21.9739 44.7092 21.9739C47.5127 21.9739 50.6733 16.8058 50.6733 11.9491C50.6733 11.2161 48.6733 9.67659 47.7805 9.67659C46.352 9.67659 43.9235 13.5252 42.1914 16.7874C43.0664 14.1667 44.2449 11.4176 44.6021 11.4176C44.6735 11.4176 44.7449 11.326 44.7449 11.2344C44.7449 10.6846 42.5486 9.67659 41.4236 9.67659C41.1317 9.67659 40.4139 11.3129 39.5801 13.5595C38.9999 13.92 38.3118 14.13 37.5976 14.13C37.6154 13.9468 37.6154 13.7636 37.6154 13.5803V13.5802C37.6154 13.1404 37.5797 12.7372 37.5083 12.4073C37.544 12.4256 37.5976 12.444 37.6512 12.444C37.8297 12.444 38.0797 12.224 38.0797 11.8575C38.0797 10.7579 35.8298 9.475 33.9549 9.475C32.2891 9.475 30.1071 11.9472 28.9889 14.6016C27.4147 16.9381 25.1013 20.2879 24.9301 20.2879C24.8944 20.2879 24.8765 20.1779 24.8765 19.9946C24.8765 17.9054 27.2336 11.9858 27.93 11.9858C28.0371 11.9858 28.1621 11.8208 28.1621 11.6376C28.1621 10.8495 25.6265 9.65827 25.0551 9.65827C24.0194 9.65827 21.1445 13.3603 19.2875 16.6225C21.0374 11.7842 24.1444 4.80164 24.9301 4.80164C25.0373 4.80164 25.1265 4.69168 25.1265 4.56339C25.1265 3.97693 23.0909 2.96895 22.0195 2.96895C21.0098 2.96895 18.3556 9.45832 16.6562 14.4085C13.943 18.6873 10.2305 21.4241 6.85688 21.4241C4.37483 21.4241 2.9106 19.9763 2.9106 17.5022C2.9106 11.7109 11.071 2.21755 16.1779 2.21755C16.1779 5.62635 13.2138 9.60329 11.0531 9.60329C10.7317 9.60329 10.6246 9.69492 10.6246 9.78656ZM34.2406 12.8105C32.8656 14.2766 31.7228 17.0073 31.7228 19.0416C31.7228 20.1596 32.0621 20.4161 32.4728 20.4161C33.8299 20.4161 35.6691 17.5755 36.2941 15.0097C35.187 14.6432 34.3656 13.8001 34.2406 12.8105ZM36.4726 13.9284C36.4905 13.7452 36.4905 13.5802 36.4905 13.4153C36.4905 12.5722 36.2762 12.1691 36.0084 12.1691C35.7762 12.1691 35.5798 12.4073 35.5798 12.7922C35.5798 13.287 35.9191 13.6902 36.4726 13.9284ZM41.6736 20.2329C42.7271 18.1436 46.477 11.5459 47.4591 10.8129C47.4591 15.5962 44.6021 20.0679 41.6736 20.2329ZM54.8863 16.7874C56.6183 13.5252 59.0468 9.67659 60.4753 9.67659C61.3681 9.67659 63.3681 11.2161 63.3681 11.9491C63.3681 16.8058 60.2075 21.9739 57.404 21.9739C56.3148 21.9739 54.5648 21.2042 54.172 20.6544C52.7613 23.6234 51.7614 26.5923 51.7614 27.5453C51.7614 27.8019 51.8328 27.9302 51.9578 27.9302C52.0828 27.9302 52.1364 28.0035 52.1364 28.1684C52.1364 28.4433 51.9221 28.5899 51.6185 28.5899C50.565 28.5899 48.3508 27.0871 48.3508 26.2441C48.3508 24.9795 53.2256 9.67659 54.1184 9.67659C55.2434 9.67659 57.4397 10.6846 57.4397 11.2344C57.4397 11.326 57.3683 11.4176 57.2969 11.4176C56.9397 11.4176 55.7612 14.1667 54.8863 16.7874ZM54.3684 20.2329C55.422 18.1436 59.1718 11.5459 60.1539 10.8129C60.1539 15.5962 57.2969 20.0679 54.3684 20.2329ZM73.5451 12.5356C73.5451 11.0511 71.7238 9.65827 70.1345 9.65827C67.2775 9.65827 63.7419 14.1484 63.7419 17.4472C63.7419 19.9946 65.8311 21.9739 67.8132 21.9739C69.6535 21.9739 71.6231 20.2851 73.2646 18.3665C73.112 18.9494 73.0225 19.3971 73.0225 19.6281C73.0225 20.8743 75.5939 21.9739 76.2546 21.9739C76.451 21.9739 76.576 21.8823 76.576 21.5891C76.576 20.3428 78.933 16.1643 81.2722 13.122C81.0758 13.6719 80.9687 14.2583 80.9687 14.7898C80.9687 15.5595 83.2007 16.7874 84.6114 16.7874C85.2899 16.7874 89.3791 12.5722 89.3433 11.8758C89.3255 11.7475 89.1291 11.5459 88.9148 11.5459C88.6469 11.5459 88.3434 11.8025 88.1291 12.0591C87.647 12.6639 84.7721 15.5045 84.5221 15.5045C84.4864 15.5045 84.4685 15.4496 84.4685 15.3029C84.4685 14.2583 85.3435 12.1324 85.9685 12.1324C86.1649 12.1324 86.3435 11.9125 86.3435 11.6926C86.3435 10.8678 83.8078 9.67659 83.2007 9.67659C82.1829 9.67659 79.4152 13.2503 77.5402 16.4575C78.4509 13.9468 79.6294 11.436 79.9866 11.436C80.0401 11.436 80.1116 11.3443 80.1116 11.2344C80.1116 10.5563 77.7545 9.67659 76.9331 9.67659C76.4279 9.67659 75.2799 12.3271 74.3577 14.9159C72.688 17.302 70.1283 20.4161 68.3489 20.4161C67.5454 20.4161 67.0454 19.7747 67.0454 18.7118C67.0454 16.1826 69.831 12.7005 71.7773 12.4806C71.4559 14.7348 69.1703 16.2926 68.0096 16.2926C67.7775 16.2926 67.6525 16.3476 67.6525 16.4209C67.6525 16.6591 68.706 17.1906 69.4203 17.1906C70.8131 17.1906 73.5451 15.0647 73.5451 12.5356ZM102.968 7.40037C102.968 7.70207 102.788 7.86179 102.663 7.86179C102.251 7.86179 101.194 9.51223 100.03 11.7661C105.672 11.3401 109.487 9.35251 109.487 6.65501C109.487 4.43668 106.89 2.98145 102.806 2.98145C96.7523 2.98145 91.3251 6.17585 91.3251 9.81393C91.3251 11.2692 92.1848 12.4227 93.3849 12.4227C93.8506 12.4227 94.1193 12.6002 94.1193 12.7954C94.1193 13.0261 93.761 13.2568 93.0088 13.2568C90.9848 13.2568 89.6414 11.5176 89.6414 9.19279C89.6414 4.34794 95.4626 0 102.824 0C108.377 0 112.174 2.44904 112.174 6.06937C112.174 8.73138 110.114 10.8255 106.621 12.05C108.699 12.7066 109.935 14.1974 109.935 16.3447C109.935 20.5862 105.153 24.7034 100.263 24.7034C98.6509 24.7034 96.9851 24.1 95.4447 23.0175C95.3731 23.3724 95.3372 23.6741 95.3372 23.9226C95.3372 24.5082 95.1223 24.6857 94.7999 24.6857C93.8506 24.6857 92.3819 23.1772 92.3819 21.9172C92.3819 19.3617 98.5434 5.11105 100.048 5.11105C101.373 5.11105 102.968 6.51304 102.968 7.40037ZM103.827 13.0616C102.412 13.0616 100.729 13.381 98.8837 14.0554C97.6478 16.6287 96.4478 19.5036 95.8029 21.5977C96.6269 21.9704 97.5583 22.1656 98.5613 22.1656C102.824 22.1656 107.804 18.7405 107.804 15.7058C107.804 14.0199 106.245 13.0616 103.827 13.0616ZM123.858 3.78005C122.935 3.78005 120.027 10.4633 118.251 15.3027C116.67 17.5101 114.434 20.5507 114.266 20.5507C114.23 20.5507 114.212 20.4442 114.212 20.3555C114.212 19.4859 116.415 12.3872 117.096 12.3872C117.167 12.3872 117.275 12.2807 117.275 12.121C117.275 11.4111 115.34 10.2576 114.319 10.2576C113.496 10.2576 110.522 18.7228 110.522 20.0538C110.522 21.1541 112.492 22.1834 114.355 22.1834C114.615 22.1834 115.741 20.7992 116.998 19.0937C116.883 19.5293 116.819 19.8542 116.819 20.036C116.819 21.1186 119.112 22.1834 119.757 22.1834C119.954 22.1834 120.079 22.0946 120.079 21.8107C120.079 21.1363 120.778 19.6279 121.799 17.9064C122.175 20.1248 124.414 22.1834 126.653 22.1834C126.947 22.1834 128.35 20.3838 129.796 18.3513C130.078 20.5465 132.008 22.1834 133.845 22.1834C136.49 22.1834 139.401 18.8254 141.229 16.2667C141.579 16.8869 142.058 17.5516 142.617 18.1726C142.33 18.3146 142.044 18.4566 141.811 18.5631C139.303 19.6811 138.443 20.9056 138.443 21.9704C138.443 23.5854 140.414 24.8454 141.596 24.8454C143.064 24.8454 146.378 22.84 146.378 21.0476C146.378 20.2667 145.751 19.1664 145.124 18.1194C146.531 17.3128 148.069 16.3806 149.382 15.5582C148.626 17.7387 148.112 19.5026 148.112 20.036C148.112 21.1363 150.405 22.1834 151.068 22.1834C151.265 22.1834 151.39 22.0946 151.39 21.8107C151.39 20.5684 153.898 16.327 156.28 13.3633C155.366 15.3509 154.399 18.5098 154.399 20.249C154.399 21.1541 156.19 22.1834 158.053 22.1834C158.344 22.1834 159.794 20.2951 161.267 18.1963C161.31 20.4064 162.851 22.1834 164.687 22.1834C167.159 22.1834 169.81 18.9357 170.491 15.6348C171.036 15.6348 171.596 15.5316 172.128 15.354C170.505 19.7682 168.686 25.5715 168.686 26.3184C168.686 27.1347 170.907 28.5899 171.964 28.5899C172.269 28.5899 172.484 28.448 172.484 28.1818C172.484 28.022 172.43 27.9511 172.305 27.9511C172.179 27.9511 172.108 27.8268 172.108 27.5784C172.108 26.6555 173.111 23.7806 174.526 20.9056C174.92 21.438 176.675 22.1834 177.768 22.1834C180.58 22.1834 183.75 17.1788 183.75 12.4759C183.75 11.7661 181.744 10.2753 180.848 10.2753C179.415 10.2753 176.979 14.0021 175.242 17.1611C176.12 14.6233 177.302 11.9613 177.66 11.9613C177.732 11.9613 177.803 11.8725 177.803 11.7838C177.803 11.2514 175.6 10.2753 174.472 10.2753C174.179 10.2753 173.459 11.8598 172.623 14.0354C172.041 14.3844 171.35 14.5878 170.634 14.5878C170.652 14.4103 170.652 14.2329 170.652 14.0554C170.652 13.6295 170.616 13.239 170.544 12.9196C170.58 12.9373 170.634 12.9551 170.688 12.9551C170.867 12.9551 171.118 12.7421 171.118 12.3872C171.118 11.3224 168.861 10.0801 166.98 10.0801C165.309 10.0801 163.121 12.4741 161.999 15.0444C160.42 17.307 158.099 20.5507 157.928 20.5507C157.892 20.5507 157.874 20.4442 157.874 20.2667C157.874 18.2436 160.238 12.5114 160.937 12.5114C161.044 12.5114 161.17 12.3517 161.17 12.1742C161.17 11.4111 158.626 10.2576 158.053 10.2576C157.014 10.2576 154.13 13.8424 152.268 17.0013C154.023 12.3162 157.139 5.55472 157.928 5.55472C158.035 5.55472 158.125 5.44824 158.125 5.32401C158.125 4.75612 156.083 3.78005 155.008 3.78005C154.061 3.78005 151.673 9.27071 149.973 13.9023C148.51 14.8433 146.398 16.1251 144.533 17.1611C144.175 16.5577 143.906 16.0253 143.906 15.6703C143.906 14.5523 146.683 12.121 147.829 12.121C148.187 12.121 148.581 12.3695 148.581 12.6711C148.581 12.8486 148.707 12.9728 148.85 12.9728C149.047 12.9728 149.28 12.7776 149.28 12.2452C149.28 10.7013 147.256 9.4235 146.038 9.4235C144.103 9.4235 140.611 12.6534 140.611 14.4813C140.611 14.6282 140.634 14.7932 140.679 14.9725C139.021 17.3166 136.266 20.6749 134.382 20.6749C133.576 20.6749 133.075 20.0538 133.075 19.0245C133.075 16.5754 135.869 13.2035 137.821 12.9906C137.499 15.1734 135.206 16.6819 134.042 16.6819C133.809 16.6819 133.684 16.7351 133.684 16.8061C133.684 17.0368 134.74 17.5515 135.457 17.5515C136.854 17.5515 139.594 15.4929 139.594 13.0438C139.594 11.6063 137.767 10.2576 136.173 10.2576C133.892 10.2576 131.18 13.0121 130.168 15.7471C128.635 17.9106 126.719 20.5507 126.563 20.5507C125.703 20.5507 125.005 19.1842 125.005 18.0129C127.082 18.0129 129.787 13.7359 129.787 12.0855C129.787 11.5708 127.602 10.2576 126.903 10.2576C125.757 10.2576 122.909 13.7359 121.028 16.8594C122.82 12.1742 125.954 5.48373 126.724 5.48373C126.832 5.48373 126.975 5.34176 126.975 5.21753C126.975 4.75612 124.915 3.78005 123.858 3.78005ZM118.188 9.45899C118.188 9.67195 118.152 9.81393 117.543 9.81393C116.093 9.81393 115.072 8.96208 115.072 7.80855C115.072 6.33557 116.684 3.78005 117.669 3.78005C118.35 3.78005 120.266 4.96908 120.266 5.51922C120.266 5.64345 120.141 5.78542 119.997 5.78542C119.353 5.78542 118.188 8.30546 118.188 9.45899ZM122.622 16.6109C123.679 14.9605 124.951 13.2745 126.079 12.0678C126.097 12.0678 126.097 12.121 126.097 12.2097C126.097 13.3988 124.091 16.7351 122.999 16.7351C122.873 16.7351 122.73 16.6819 122.622 16.6109ZM140.002 22.5206C139.643 22.5206 139.393 22.3608 139.393 22.0592C139.393 21.5622 140.109 20.6927 142.294 19.6456C142.581 19.5036 142.903 19.3439 143.244 19.1664C143.405 19.4681 143.494 19.7343 143.494 19.965C143.494 21.1008 141.04 22.5206 140.002 22.5206ZM164.741 19.3439C164.741 17.374 165.888 14.7298 167.267 13.31C167.392 14.2683 168.216 15.0847 169.327 15.4396C168.7 17.9242 166.855 20.6749 165.493 20.6749C165.082 20.6749 164.741 20.4265 164.741 19.3439ZM169.524 13.8957C169.524 14.0554 169.524 14.2151 169.506 14.3926C168.95 14.1619 168.61 13.7714 168.61 13.2923C168.61 12.9196 168.807 12.6889 169.04 12.6889C169.309 12.6889 169.524 13.0793 169.524 13.8957ZM174.723 20.4974C175.779 18.4743 179.541 12.0855 180.526 11.3756C180.526 16.0075 177.66 20.3377 174.723 20.4974Z" fill="#BAA480"/>
</svg>
